<?xml version="1.0" ?><svg viewBox="0 0 96 96" xmlns="http://www.w3.org/2000/svg"><defs><style>.cls-1{fill:#ff99c7;}.cls-2{fill:#ff5f99;}.cls-3{opacity:0.3;}.cls-4{fill:#464965;}.cls-5{opacity:0.4;}.cls-6{fill:#fff;}</style></defs><title/><g data-name="Corona Virus" id="Corona_Virus"><circle class="cls-1" cx="48" cy="8.12" r="4.12"/><circle class="cls-1" cx="76.2" cy="19.8" r="4.12"/><circle class="cls-1" cx="87.88" cy="48" r="4.12"/><circle class="cls-1" cx="76.2" cy="76.2" r="4.12"/><circle class="cls-1" cx="48" cy="87.88" r="4.12"/><circle class="cls-1" cx="19.8" cy="76.2" r="4.12"/><circle class="cls-1" cx="8.12" cy="48" r="4.12"/><circle class="cls-1" cx="19.8" cy="19.8" r="4.12"/><path class="cls-2" d="M50.45,21.14A27.34,27.34,0,0,0,42.77,23a2.09,2.09,0,0,0-2.29-.53C34.31,24.78,21.41,32.59,21.05,48c0,0-.05,21.1,22.2,25.83,0,0-.54-.43-1.41-1.24a27,27,0,0,0,8.61,2.27,27,27,0,0,0,0-53.72Z"/><path class="cls-1" d="M54.93,36.19A13.69,13.69,0,1,0,61.69,48a13.7,13.7,0,0,0-6.76-11.81"/><circle class="cls-2" cx="48" cy="48" r="4.9"/><g class="cls-3"><path class="cls-4" d="M56.63,73.3a16.38,16.38,0,0,0,5-15.79c-2-9.31-1.45-13.58,1.79-20.08,2.37-4.77-1-12.16-1-12.16S79.8,34.65,72.75,58.06C63.22,74.44,56.63,73.3,56.63,73.3Z"/></g><g class="cls-3"><path class="cls-4" d="M52.12,61.05s4.68-5.6,3.49-11.76c-1-5.42,3.26-9.61,3.26-9.61S67.87,54,52.12,61.05Z"/></g><g class="cls-5"><path class="cls-6" d="M32.44,70s-8.56-14.12-2.81-27.5,10-11.31,9-19.78c0,0-17.59,7.66-17.59,25.28S32.44,70,32.44,70Z"/></g><path class="cls-4" d="M23.15,39.75a1.52,1.52,0,0,1-1.06-.44,2.11,2.11,0,0,1-.19-.23,1.26,1.26,0,0,1-.13-.26,1.31,1.31,0,0,1-.09-.28,1.36,1.36,0,0,1,0-.29,1.5,1.5,0,0,1,.44-1.06,1.55,1.55,0,0,1,2.12,0,1.5,1.5,0,0,1,.44,1.06,1.36,1.36,0,0,1,0,.29,2.29,2.29,0,0,1-.08.28,2.15,2.15,0,0,1-.14.26,2.11,2.11,0,0,1-.19.23A1.5,1.5,0,0,1,23.15,39.75Z"/><path class="cls-4" d="M25.44,34.74a1.56,1.56,0,0,1-.82-.24,1.51,1.51,0,0,1-.43-2.08A28.4,28.4,0,0,1,48,19.55a1.5,1.5,0,0,1,0,3A25.4,25.4,0,0,0,26.7,34.06,1.51,1.51,0,0,1,25.44,34.74Z"/><path class="cls-4" d="M63.22,27.25a1.47,1.47,0,0,1-.85-.26A25.36,25.36,0,0,0,48,22.55a1.5,1.5,0,0,1,0-3,28.27,28.27,0,0,1,16.06,5,1.5,1.5,0,0,1-.84,2.73Z"/><path class="cls-4" d="M48,76.45A28.48,28.48,0,0,1,19.55,48,28.78,28.78,0,0,1,20,43a1.5,1.5,0,1,1,3,.52A25.81,25.81,0,0,0,22.55,48,25.45,25.45,0,1,0,66.4,30.41a1.5,1.5,0,1,1,2.16-2.07A28.45,28.45,0,0,1,48,76.45Z"/><path class="cls-4" d="M48,13.75a5.63,5.63,0,1,1,5.63-5.62A5.62,5.62,0,0,1,48,13.75ZM48,5.5a2.63,2.63,0,1,0,2.63,2.63A2.62,2.62,0,0,0,48,5.5Z"/><path class="cls-4" d="M58.28,24.57a1.36,1.36,0,0,1-.56-.11,1.5,1.5,0,0,1-.83-1.95L59.12,17a1.5,1.5,0,1,1,2.78,1.12l-2.23,5.52A1.5,1.5,0,0,1,58.28,24.57Z"/><path class="cls-4" d="M72.9,39.18a1.5,1.5,0,0,1-.48-2.92l5.43-1.85a1.5,1.5,0,1,1,1,2.84L73.39,39.1A1.4,1.4,0,0,1,72.9,39.18Z"/><path class="cls-4" d="M78.39,62.27a1.57,1.57,0,0,1-.6-.12L72.67,59.9a1.5,1.5,0,0,1,1.21-2.75L79,59.4a1.5,1.5,0,0,1-.6,2.87Z"/><path class="cls-4" d="M60.11,79.11a1.52,1.52,0,0,1-1.4-.94L56.85,73.5a1.5,1.5,0,0,1,2.79-1.11l1.86,4.66a1.5,1.5,0,0,1-.84,2A1.35,1.35,0,0,1,60.11,79.11Z"/><path class="cls-4" d="M35.1,80.13a1.61,1.61,0,0,1-.6-.12,1.5,1.5,0,0,1-.77-2l2.51-5.76A1.5,1.5,0,0,1,39,73.47l-2.51,5.76A1.5,1.5,0,0,1,35.1,80.13Z"/><path class="cls-4" d="M16.77,62.48a1.5,1.5,0,0,1-.59-2.88l5.95-2.55a1.5,1.5,0,1,1,1.18,2.76l-5.95,2.55A1.52,1.52,0,0,1,16.77,62.48Z"/><path class="cls-4" d="M19.8,37.83a1.41,1.41,0,0,1-.6-.13l-3.1-1.37a1.5,1.5,0,1,1,1.22-2.74L20.41,35a1.5,1.5,0,0,1-.61,2.87Z"/><path class="cls-4" d="M76.2,25.43a5.63,5.63,0,1,1,4-1.65h0A5.58,5.58,0,0,1,76.2,25.43Zm0-8.25a2.61,2.61,0,0,0-1.86.77,2.57,2.57,0,0,0-.77,1.85,2.61,2.61,0,0,0,.77,1.86,2.69,2.69,0,0,0,3.71,0h0a2.61,2.61,0,0,0,.77-1.86,2.63,2.63,0,0,0-2.62-2.62Z"/><path class="cls-4" d="M55.61,41.89a1.45,1.45,0,0,1-1.06-.44,1.49,1.49,0,0,1,0-2.12L72.22,21.66a1.5,1.5,0,1,1,2.12,2.12L56.67,41.45A1.47,1.47,0,0,1,55.61,41.89Z"/><path class="cls-4" d="M87.88,53.63A5.63,5.63,0,1,1,93.5,48,5.64,5.64,0,0,1,87.88,53.63Zm0-8.25A2.63,2.63,0,1,0,90.5,48,2.62,2.62,0,0,0,87.88,45.38Z"/><path class="cls-4" d="M83.75,49.5h-14a1.5,1.5,0,0,1,0-3h14a1.5,1.5,0,0,1,0,3Z"/><path class="cls-4" d="M76.2,81.82a5.61,5.61,0,0,1-4-1.65h0a5.61,5.61,0,1,1,4,1.65Zm0-8.25a2.63,2.63,0,0,0-2.63,2.63,2.57,2.57,0,0,0,.77,1.85h0a2.69,2.69,0,0,0,3.71,0,2.57,2.57,0,0,0,.77-1.85,2.61,2.61,0,0,0-.77-1.86A2.57,2.57,0,0,0,76.2,73.57Z"/><path class="cls-4" d="M73.28,74.78a1.51,1.51,0,0,1-1.06-.44L61.44,63.56a1.5,1.5,0,0,1,2.12-2.12L74.34,72.22a1.49,1.49,0,0,1,0,2.12A1.51,1.51,0,0,1,73.28,74.78Z"/><path class="cls-4" d="M48,93.5a5.63,5.63,0,1,1,5.63-5.62A5.62,5.62,0,0,1,48,93.5Zm0-8.25a2.63,2.63,0,1,0,2.63,2.63A2.62,2.62,0,0,0,48,85.25Z"/><path class="cls-4" d="M48,85.25a1.5,1.5,0,0,1-1.5-1.5V65.13a1.5,1.5,0,0,1,3,0V83.75A1.5,1.5,0,0,1,48,85.25Z"/><path class="cls-4" d="M19.8,81.82a5.63,5.63,0,0,1-4-9.6h0a5.62,5.62,0,1,1,4,9.6Zm0-8.25a2.57,2.57,0,0,0-1.85.77h0a2.61,2.61,0,0,0-.77,1.86A2.57,2.57,0,0,0,18,78.05a2.69,2.69,0,0,0,3.71,0,2.57,2.57,0,0,0,.77-1.85,2.63,2.63,0,0,0-2.63-2.63Zm-2.91-.29h0Z"/><path class="cls-4" d="M22.72,74.78a1.51,1.51,0,0,1-1.06-.44,1.49,1.49,0,0,1,0-2.12l9.72-9.72a1.5,1.5,0,0,1,2.12,2.12l-9.72,9.72A1.51,1.51,0,0,1,22.72,74.78Z"/><path class="cls-4" d="M8.13,53.63A5.63,5.63,0,1,1,13.75,48,5.64,5.64,0,0,1,8.13,53.63Zm0-8.25A2.63,2.63,0,1,0,10.75,48,2.62,2.62,0,0,0,8.13,45.38Z"/><path class="cls-4" d="M37.33,49.5H12.25a1.5,1.5,0,0,1,0-3H37.33a1.5,1.5,0,0,1,0,3Z"/><path class="cls-4" d="M19.8,25.43a5.62,5.62,0,1,1,4-9.6h0a5.63,5.63,0,0,1-4,9.6Zm0-8.25a2.63,2.63,0,0,0-2.62,2.62A2.61,2.61,0,0,0,18,21.66a2.69,2.69,0,0,0,3.71,0,2.61,2.61,0,0,0,.77-1.86A2.57,2.57,0,0,0,21.66,18h0A2.61,2.61,0,0,0,19.8,17.18Z"/><path class="cls-4" d="M31.13,32.63a1.53,1.53,0,0,1-1.07-.44l-8.4-8.41a1.5,1.5,0,1,1,2.12-2.12l8.41,8.4a1.51,1.51,0,0,1-1.06,2.57Z"/><path class="cls-4" d="M48,63.19a15.19,15.19,0,0,1,0-30.38,15.05,15.05,0,0,1,3.61.44,1.5,1.5,0,0,1-.71,2.91A12.19,12.19,0,1,0,60.19,48a12.11,12.11,0,0,0-3.57-8.62,1.5,1.5,0,0,1,2.12-2.12A15.19,15.19,0,0,1,48,63.19Z"/><path class="cls-4" d="M48,54.4A6.4,6.4,0,1,1,54.4,48,6.41,6.41,0,0,1,48,54.4Zm0-9.8A3.4,3.4,0,1,0,51.4,48,3.4,3.4,0,0,0,48,44.6Z"/><path class="cls-4" d="M30.38,59a1.52,1.52,0,0,1-1.07-.44,1.65,1.65,0,0,1-.41-.77,1.42,1.42,0,0,1,0-.58,1.69,1.69,0,0,1,.41-.77A1.52,1.52,0,0,1,30.67,56l.28.08.26.14a2.11,2.11,0,0,1,.23.19,2,2,0,0,1,.18.23,1.61,1.61,0,0,1,.23.54,1.42,1.42,0,0,1,0,.58,1.61,1.61,0,0,1-.23.54,2,2,0,0,1-.18.23,2.11,2.11,0,0,1-.23.19l-.26.14-.28.08Z"/><path class="cls-4" d="M66.25,54.25a1.5,1.5,0,0,1-1.06-2.56,1.55,1.55,0,0,1,2.12,0,1.5,1.5,0,0,1-1.06,2.56Z"/><path class="cls-4" d="M36.61,33.5a1.36,1.36,0,0,1-.29,0L36,33.39a2,2,0,0,1-.25-.14,1.57,1.57,0,0,1-.42-.42,2.15,2.15,0,0,1-.14-.26,2.29,2.29,0,0,1-.08-.28,1.42,1.42,0,0,1,0-.58,2.29,2.29,0,0,1,.08-.28,2.15,2.15,0,0,1,.14-.26,2.11,2.11,0,0,1,.19-.23,1.45,1.45,0,0,1,.23-.19,2,2,0,0,1,.25-.14l.29-.08a1.42,1.42,0,0,1,.58,0l.28.08.26.14a1.57,1.57,0,0,1,.42.42,1.26,1.26,0,0,1,.13.26,1.31,1.31,0,0,1,.09.28,1.42,1.42,0,0,1,0,.58,1.31,1.31,0,0,1-.09.28,1.26,1.26,0,0,1-.13.26,1.45,1.45,0,0,1-.19.23,2.11,2.11,0,0,1-.23.19l-.26.14-.28.08A1.43,1.43,0,0,1,36.61,33.5Z"/><path class="cls-4" d="M48,29.93h0a1.51,1.51,0,0,1-1.5-1.51l0-15.75A1.5,1.5,0,0,1,48,11.18h0a1.5,1.5,0,0,1,1.5,1.5l0,15.75A1.5,1.5,0,0,1,48,29.93Z"/><path class="cls-4" d="M37.33,24.57A1.51,1.51,0,0,1,36,23.7L33.77,19A1.5,1.5,0,0,1,36.5,17.7l2.19,4.74a1.49,1.49,0,0,1-.73,2A1.38,1.38,0,0,1,37.33,24.57Z"/><ellipse class="cls-4" cx="61.43" cy="15.68" rx="2.23" ry="3.78" transform="translate(25.66 68.03) rotate(-69.97)"/><ellipse class="cls-4" cx="80.32" cy="35.11" rx="2.23" ry="3.78" transform="translate(-7.32 37.19) rotate(-24.97)"/><ellipse class="cls-4" cx="80.32" cy="61.63" rx="3.78" ry="2.23" transform="translate(-5.09 115.98) rotate(-69.97)"/><ellipse class="cls-4" cx="60.89" cy="79.53" rx="3.78" ry="2.23" transform="translate(-27.88 33.14) rotate(-24.97)"/><ellipse class="cls-4" cx="34.31" cy="80.49" rx="2.23" ry="3.78" transform="translate(-53.06 85.16) rotate(-69.97)"/><ellipse class="cls-4" cx="14.91" cy="61.69" rx="2.23" ry="3.78" transform="translate(-24.65 12.06) rotate(-24.97)"/><ellipse class="cls-4" cx="14.91" cy="34.1" rx="3.78" ry="2.23" transform="translate(-22.23 36.43) rotate(-69.97)"/><ellipse class="cls-4" cx="34.31" cy="16.45" rx="3.78" ry="2.23" transform="translate(-3.74 16.02) rotate(-24.97)"/></g></svg>