<?xml version="1.0" ?><svg id="Icons" viewBox="0 0 60 60" xmlns="http://www.w3.org/2000/svg"><defs><style>.cls-1{fill:#31b5a5;}.cls-2{fill:#34d6c6;}.cls-3{fill:#373737;}</style></defs><path class="cls-1" d="M39.61,44.02a19.252,19.252,0,0,1,5.37,3.92c-.88,1.55-.99,3.12-.13,3.98,1.17,1.17,3.7.54,5.66-1.41s2.58-4.49,1.41-5.66c-.86-.86-2.43-.75-3.98.13a19.252,19.252,0,0,1-3.92-5.37V20.39a19.252,19.252,0,0,1,3.92-5.37c1.55.88,3.12.99,3.98.13,1.17-1.17.54-3.7-1.41-5.66s-4.49-2.58-5.66-1.41c-.86.86-.75,2.43.13,3.98a19.252,19.252,0,0,1-5.37,3.92H20.39a19.252,19.252,0,0,1-5.37-3.92c.88-1.55.99-3.12.13-3.98-1.17-1.17-3.7-.54-5.66,1.41s-2.58,4.49-1.41,5.66c.86.86,2.43.75,3.98-.13a19.252,19.252,0,0,1,3.92,5.37V39.61a19.252,19.252,0,0,1-3.92,5.37c-1.55-.88-3.12-.99-3.98-.13-1.17,1.17-.54,3.7,1.41,5.66s4.49,2.58,5.66,1.41c.86-.86.75-2.43-.13-3.98a19.252,19.252,0,0,1,5.37-3.92Z"/><path class="cls-2" d="M59,30c0,2.76-1.34,5-3,5-1.21,0-2.25-1.19-2.72-2.91a19.325,19.325,0,0,0-6.57,1.02,16.98,16.98,0,0,1-13.6,13.6,19.325,19.325,0,0,0-1.02,6.57C33.81,53.75,35,54.79,35,56c0,1.66-2.24,3-5,3s-5-1.34-5-3c0-1.21,1.19-2.25,2.91-2.72a19.325,19.325,0,0,0-1.02-6.57,16.98,16.98,0,0,1-13.6-13.6,19.325,19.325,0,0,0-6.57-1.02C6.25,33.81,5.21,35,4,35c-1.66,0-3-2.24-3-5s1.34-5,3-5c1.21,0,2.25,1.19,2.72,2.91a19.325,19.325,0,0,0,6.57-1.02,16.917,16.917,0,0,1,13.6-13.6,19.325,19.325,0,0,0,1.02-6.57C26.19,6.25,25,5.21,25,4c0-1.66,2.24-3,5-3s5,1.34,5,3c0,1.21-1.19,2.25-2.91,2.72a19.325,19.325,0,0,0,1.02,6.57,16.917,16.917,0,0,1,13.6,13.6,19.325,19.325,0,0,0,6.57,1.02C53.75,26.19,54.79,25,56,25,57.66,25,59,27.24,59,30Z"/><ellipse class="cls-1" cx="25" cy="24" rx="4" ry="3"/><ellipse class="cls-1" cx="27" cy="36" rx="4" ry="3"/><ellipse class="cls-1" cx="36" cy="29" rx="4" ry="3"/><path class="cls-3" d="M56,24c-1.47,0-2.746,1.1-3.445,2.915a18.726,18.726,0,0,1-4.981-.8,17.808,17.808,0,0,0-2.4-5.77,18.517,18.517,0,0,1,2.956-4.112c1.777.785,3.456.658,4.493-.379,1.582-1.582.964-4.689-1.412-7.076s-5.49-2.99-7.072-1.408c-1.038,1.038-1.164,2.716-.379,4.494a18.527,18.527,0,0,1-4.112,2.955,17.8,17.8,0,0,0-5.769-2.4,18.64,18.64,0,0,1-.8-4.981C34.9,6.747,36,5.47,36,4c0-2.243-2.636-4-6-4s-6,1.757-6,4c0,1.47,1.1,2.747,2.915,3.445a18.692,18.692,0,0,1-.8,4.981,17.932,17.932,0,0,0-5.786,2.387,18.545,18.545,0,0,1-4.1-2.946c.785-1.779.658-3.457-.379-4.494-1.581-1.581-4.688-.963-7.076,1.412-2.371,2.383-2.99,5.49-1.408,7.072,1.037,1.037,2.715,1.165,4.494.379a18.522,18.522,0,0,1,2.95,4.1A18.026,18.026,0,0,0,13.6,22.588a1,1,0,1,0,1.823.824,15.972,15.972,0,0,1,9.793-8.678A10.583,10.583,0,0,1,24.2,16.4a1,1,0,1,0,1.6,1.2,14.084,14.084,0,0,0,2.039-3.992h0A20.486,20.486,0,0,0,28.91,6.69a1,1,0,0,0-.737-.935C26.894,5.406,26,4.684,26,4c0-.944,1.71-2,4-2s4,1.056,4,2c0,.684-.894,1.405-2.174,1.755a1,1,0,0,0-.736.935,20.444,20.444,0,0,0,1.073,6.919h0A14.109,14.109,0,0,0,34.2,17.6a1,1,0,1,0,1.6-1.2,10.642,10.642,0,0,1-1-1.649A16.057,16.057,0,0,1,45.251,25.2a10.508,10.508,0,0,1-1.648-1A1,1,0,1,0,42.4,25.8a14.091,14.091,0,0,0,3.993,2.039h0A20.49,20.49,0,0,0,53.31,28.91a1,1,0,0,0,.935-.737C54.6,26.894,55.316,26,56,26c.944,0,2,1.71,2,4s-1.056,4-2,4c-.684,0-1.405-.894-1.755-2.174a1,1,0,0,0-.935-.736,20.646,20.646,0,0,0-6.92,1.073h0A14.114,14.114,0,0,0,42.4,34.2,1,1,0,0,0,43.6,35.8a10.473,10.473,0,0,1,1.649-1A16.064,16.064,0,0,1,34.8,45.252a10.473,10.473,0,0,1,1-1.649A1,1,0,1,0,34.2,42.4a14.114,14.114,0,0,0-2.037,3.989h0v0h0a20.457,20.457,0,0,0-1.073,6.92,1,1,0,0,0,.736.935C33.106,54.6,34,55.316,34,56c0,.944-1.711,2-4,2s-4-1.056-4-2c0-.684.894-1.405,2.173-1.755a1,1,0,0,0,.737-.935,20.477,20.477,0,0,0-1.072-6.918v0A14.091,14.091,0,0,0,25.8,42.4,1,1,0,1,0,24.2,43.6a10.508,10.508,0,0,1,1,1.648A16.057,16.057,0,0,1,14.749,34.8a10.642,10.642,0,0,1,1.649,1,1,1,0,0,0,1.4-.2,1,1,0,0,0-.2-1.4,14.109,14.109,0,0,0-3.992-2.039h0A20.694,20.694,0,0,0,6.691,31.09a1,1,0,0,0-.935.736C5.406,33.106,4.684,34,4,34c-.944,0-2-1.711-2-4s1.056-4,2-4c.684,0,1.406.894,1.755,2.174a1,1,0,0,0,.936.736,20.444,20.444,0,0,0,6.917-1.072h0A14.084,14.084,0,0,0,17.6,25.8a1,1,0,0,0-1.2-1.6,12.3,12.3,0,0,1-3.428,1.741h0a18.672,18.672,0,0,1-5.522.971C6.747,25.1,5.47,24,4,24c-2.243,0-4,2.636-4,6s1.757,6,4,6c1.47,0,2.746-1.1,3.445-2.914a18.64,18.64,0,0,1,4.981.8,17.794,17.794,0,0,0,2.4,5.769,18.527,18.527,0,0,1-2.955,4.112c-1.779-.785-3.457-.66-4.494.379-1.582,1.582-.963,4.688,1.412,7.076A7.142,7.142,0,0,0,13.562,53.5a3.159,3.159,0,0,0,2.3-.875c1.037-1.038,1.164-2.716.379-4.493a18.517,18.517,0,0,1,4.112-2.956,17.808,17.808,0,0,0,5.77,2.4,18.692,18.692,0,0,1,.8,4.981C25.1,53.254,24,54.529,24,56c0,2.243,2.636,4,6,4s6-1.757,6-4c0-1.47-1.1-2.746-2.914-3.445a18.678,18.678,0,0,1,.8-4.981,17.8,17.8,0,0,0,5.77-2.4,18.531,18.531,0,0,1,4.112,2.956c-.785,1.777-.659,3.455.379,4.493a3.155,3.155,0,0,0,2.294.875,7.151,7.151,0,0,0,4.782-2.287c2.372-2.384,2.99-5.49,1.408-7.072-1.039-1.039-2.719-1.164-4.493-.379a18.531,18.531,0,0,1-2.956-4.112,17.8,17.8,0,0,0,2.4-5.77,18.678,18.678,0,0,1,4.981-.8C53.254,34.9,54.53,36,56,36c2.243,0,4-2.636,4-6S58.243,24,56,24ZM16.114,18.554a20.213,20.213,0,0,0-3.367-4.261,1,1,0,0,0-1.181-.143c-1.171.665-2.288.783-2.779.293-.666-.666-.2-2.624,1.409-4.244s3.582-2.075,4.247-1.412c.49.49.372,1.608-.293,2.779a1,1,0,0,0,.143,1.181,20.238,20.238,0,0,0,4.257,3.365A17.961,17.961,0,0,0,16.114,18.554Zm25.315-2.431a20.209,20.209,0,0,0,4.278-3.376,1,1,0,0,0,.143-1.181c-.665-1.171-.784-2.288-.293-2.779.667-.666,2.624-.2,4.244,1.409s2.078,3.581,1.412,4.246c-.49.491-1.608.373-2.778-.292a1,1,0,0,0-1.181.143,20.22,20.22,0,0,0-3.377,4.278A18.208,18.208,0,0,0,41.429,16.123ZM14.293,47.254a1,1,0,0,0-.143,1.181c.665,1.17.783,2.288.293,2.778-.669.666-2.625.2-4.244-1.408s-2.078-3.582-1.412-4.248c.49-.489,1.608-.373,2.779.293a1,1,0,0,0,1.181-.143,20.209,20.209,0,0,0,3.376-4.278,18.208,18.208,0,0,0,2.448,2.448A20.22,20.22,0,0,0,14.293,47.254Zm32.96-1.547a1,1,0,0,0,1.182.143c1.17-.665,2.287-.783,2.778-.293.666.666.2,2.624-1.408,4.244s-3.581,2.078-4.248,1.412c-.491-.49-.372-1.608.293-2.778a1,1,0,0,0-.143-1.182,20.273,20.273,0,0,0-4.278-3.376,18.15,18.15,0,0,0,2.448-2.448A20.273,20.273,0,0,0,47.253,45.707Z"/><path class="cls-3" d="M25,20c-2.757,0-5,1.794-5,4s2.243,4,5,4,5-1.794,5-4S27.757,20,25,20Zm0,6c-1.626,0-3-.916-3-2s1.374-2,3-2,3,.916,3,2S26.626,26,25,26Z"/><path class="cls-3" d="M22,36c0,2.206,2.243,4,5,4s5-1.794,5-4-2.243-4-5-4S22,33.794,22,36Zm8,0c0,1.084-1.374,2-3,2s-3-.916-3-2,1.374-2,3-2S30,34.916,30,36Z"/><path class="cls-3" d="M36,33c2.757,0,5-1.794,5-4s-2.243-4-5-4-5,1.794-5,4S33.243,33,36,33Zm0-6c1.626,0,3,.916,3,2s-1.374,2-3,2-3-.916-3-2S34.374,27,36,27Z"/></svg>